<?xml version="1.0" encoding="UTF-8"?>
<!DOCTYPE svg PUBLIC "-//W3C//DTD SVG 1.1//EN" "http://www.w3.org/Graphics/SVG/1.1/DTD/svg11.dtd">
<!-- Creator: CorelDRAW X5 -->
<svg xmlns="http://www.w3.org/2000/svg" xml:space="preserve" width="100mm" height="100mm" style="shape-rendering:geometricPrecision; text-rendering:geometricPrecision; image-rendering:optimizeQuality; fill-rule:evenodd; clip-rule:evenodd"
viewBox="0 0 100 100"
 xmlns:xlink="http://www.w3.org/1999/xlink">
 <defs>
  <style type="text/css">
   <![CDATA[
    .str0 {stroke:#FCC525;stroke-width:0.2}
    .fil0 {fill:none}
    .fil5 {fill:#1F553C}
    .fil4 {fill:#B6B791}
    .fil1 {fill:#FCC525}
    .fil2 {fill:#1F553C;fill-rule:nonzero}
    .fil3 {fill:#373435;fill-rule:nonzero}
    .fil6 {fill:url(#id0)}
    .fil7 {fill:url(#id1)}
   ]]>
  </style>
  <linearGradient id="id0" gradientUnits="userSpaceOnUse" x1="64.6529" y1="18.7807" x2="26.9719" y2="18.7807">
   <stop offset="0" style="stop-color:#1F553C"/>
   <stop offset="0.301961" style="stop-color:#6A8666"/>
   <stop offset="1" style="stop-color:#B6B791"/>
  </linearGradient>
  <linearGradient id="id1" gradientUnits="userSpaceOnUse" x1="33.7486" y1="51.2704" x2="71.4296" y2="51.2704">
   <stop offset="0" style="stop-color:#B6B791"/>
   <stop offset="0.701961" style="stop-color:#6B8667"/>
   <stop offset="1" style="stop-color:#1F553C"/>
  </linearGradient>
 </defs>
 <g id="Capa_x0020_1">
  <metadata id="CorelCorpID_0Corel-Layer"/>
  <line class="fil0 str0" x1="18.5856" y1="79.4566" x2="81.7719" y2= "79.4566" />
  <g>
   <path class="fil1" d="M53.9097 64.5452c0.9773,0 1.7696,0.7923 1.7696,1.7696 0,0.9773 -0.7923,1.7696 -1.7696,1.7696 -0.9772,0 -1.7695,-0.7923 -1.7695,-1.7696 0,-0.9773 0.7923,-1.7696 1.7695,-1.7696z"/>
   <path id="1" class="fil2" d="M55.8621 66.3148l-0.3656 0 0 0 -0.0021 -0.0819 -0.0061 -0.0805 -0.0101 -0.0794 -0.014 -0.0782 -0.0176 -0.0767 -0.0214 -0.0752 -0.025 -0.0737 -0.0284 -0.0721 -0.0317 -0.0702 -0.035 -0.0683 -0.0382 -0.0665 -0.0413 -0.0644 -0.0443 -0.0622 -0.0471 -0.06 -0.0499 -0.0576 -0.0525 -0.0552 -0.0552 -0.0525 -0.0576 -0.0499 -0.06 -0.0471 -0.0622 -0.0443 -0.0644 -0.0413 -0.0665 -0.0382 -0.0683 -0.035 -0.0702 -0.0317 -0.0721 -0.0284 -0.0737 -0.025 -0.0752 -0.0214 -0.0767 -0.0176 -0.0782 -0.014 -0.0794 -0.0101 -0.0805 -0.0061 -0.0819 -0.0021 0 -0.3656 0.1003 0.0025 0.0991 0.0075 0.0978 0.0125 0.096 0.0172 0.0945 0.0218 0.0928 0.0264 0.0907 0.0306 0.0887 0.035 0.0866 0.0391 0.0843 0.0432 0.0817 0.047 0.0792 0.0507 0.0766 0.0545 0.0736 0.0579 0.0708 0.0613 0.0678 0.0647 0.0647 0.0678 0.0613 0.0708 0.0579 0.0736 0.0545 0.0766 0.0507 0.0792 0.047 0.0817 0.0432 0.0843 0.0391 0.0866 0.035 0.0887 0.0306 0.0907 0.0264 0.0928 0.0218 0.0945 0.0172 0.096 0.0125 0.0978 0.0075 0.0991 0.0025 0.1003 0 0zm-1.9524 1.9524l0 -0.3656 0 0 0.0819 -0.0021 0.0805 -0.0061 0.0794 -0.0101 0.0782 -0.014 0.0767 -0.0176 0.0752 -0.0214 0.0737 -0.025 0.0721 -0.0284 0.0702 -0.0317 0.0683 -0.035 0.0665 -0.0382 0.0644 -0.0413 0.0622 -0.0443 0.06 -0.0471 0.0576 -0.0499 0.0552 -0.0525 0.0525 -0.0552 0.0499 -0.0576 0.0471 -0.06 0.0443 -0.0622 0.0413 -0.0644 0.0382 -0.0665 0.035 -0.0683 0.0317 -0.0702 0.0284 -0.0721 0.025 -0.0737 0.0214 -0.0752 0.0176 -0.0767 0.014 -0.0782 0.0101 -0.0794 0.0061 -0.0805 0.0021 -0.0819 0.3656 0 -0.0025 0.1003 -0.0075 0.0991 -0.0125 0.0978 -0.0172 0.096 -0.0218 0.0945 -0.0264 0.0928 -0.0306 0.0907 -0.035 0.0887 -0.0391 0.0866 -0.0432 0.0843 -0.047 0.0817 -0.0507 0.0792 -0.0545 0.0766 -0.0579 0.0736 -0.0613 0.0708 -0.0647 0.0678 -0.0678 0.0647 -0.0708 0.0613 -0.0736 0.0579 -0.0766 0.0545 -0.0792 0.0507 -0.0817 0.047 -0.0843 0.0432 -0.0866 0.0391 -0.0887 0.035 -0.0907 0.0306 -0.0928 0.0264 -0.0945 0.0218 -0.096 0.0172 -0.0978 0.0125 -0.0991 0.0075 -0.1003 0.0025 0 0zm-1.9523 -1.9524l0.3656 0 0 0 0.0021 0.0819 0.0061 0.0805 0.0101 0.0794 0.014 0.0782 0.0176 0.0767 0.0214 0.0752 0.025 0.0737 0.0284 0.0721 0.0317 0.0702 0.035 0.0683 0.0382 0.0665 0.0413 0.0644 0.0443 0.0622 0.0471 0.06 0.0499 0.0576 0.0525 0.0552 0.0552 0.0525 0.0576 0.0499 0.06 0.0471 0.0622 0.0443 0.0644 0.0413 0.0665 0.0382 0.0683 0.035 0.0703 0.0317 0.0719 0.0285 0.0737 0.0249 0.0752 0.0214 0.0767 0.0176 0.0782 0.014 0.0794 0.0101 0.0805 0.0061 0.0819 0.0021 0 0.3656 -0.1003 -0.0025 -0.0991 -0.0075 -0.0978 -0.0125 -0.096 -0.0172 -0.0945 -0.0218 -0.0928 -0.0264 -0.0907 -0.0307 -0.0887 -0.0349 -0.0865 -0.0391 -0.0843 -0.0432 -0.0817 -0.047 -0.0792 -0.0507 -0.0766 -0.0545 -0.0736 -0.0579 -0.0708 -0.0613 -0.0678 -0.0647 -0.0647 -0.0678 -0.0613 -0.0708 -0.0579 -0.0736 -0.0545 -0.0766 -0.0507 -0.0792 -0.047 -0.0817 -0.0432 -0.0843 -0.0391 -0.0866 -0.035 -0.0887 -0.0306 -0.0907 -0.0264 -0.0928 -0.0218 -0.0945 -0.0172 -0.096 -0.0125 -0.0978 -0.0075 -0.0991 -0.0025 -0.1003 0 0zm1.9523 -1.9524l0 0.3656 0 0 -0.0819 0.0021 -0.0805 0.0061 -0.0794 0.0101 -0.0782 0.014 -0.0767 0.0176 -0.0752 0.0214 -0.0737 0.0249 -0.0719 0.0285 -0.0703 0.0317 -0.0683 0.035 -0.0665 0.0382 -0.0644 0.0413 -0.0622 0.0443 -0.06 0.0471 -0.0576 0.0499 -0.0552 0.0525 -0.0525 0.0552 -0.0499 0.0576 -0.0471 0.06 -0.0443 0.0622 -0.0413 0.0644 -0.0382 0.0665 -0.035 0.0683 -0.0317 0.0702 -0.0284 0.0721 -0.025 0.0737 -0.0214 0.0752 -0.0176 0.0767 -0.014 0.0782 -0.0101 0.0794 -0.0061 0.0805 -0.0021 0.0819 -0.3656 0 0.0025 -0.1003 0.0075 -0.0991 0.0125 -0.0978 0.0172 -0.096 0.0218 -0.0945 0.0264 -0.0928 0.0306 -0.0907 0.035 -0.0887 0.0391 -0.0866 0.0432 -0.0843 0.047 -0.0817 0.0507 -0.0792 0.0545 -0.0766 0.0579 -0.0736 0.0613 -0.0708 0.0647 -0.0678 0.0678 -0.0647 0.0708 -0.0613 0.0736 -0.0579 0.0766 -0.0545 0.0792 -0.0507 0.0817 -0.047 0.0843 -0.0432 0.0865 -0.0391 0.0887 -0.0349 0.0907 -0.0307 0.0928 -0.0264 0.0945 -0.0218 0.096 -0.0172 0.0978 -0.0125 0.0991 -0.0075 0.1003 -0.0025 0 0z"/>
  </g>
  <path class="fil3" d="M10.0906 88.505l1.3264 -6.1853 1.917 0c0.4604,0 0.8112,0.0331 1.054,0.0965 0.3464,0.0878 0.6425,0.2434 0.8897,0.4666 0.2457,0.2232 0.4308,0.5026 0.5551,0.8381 0.1229,0.3341 0.185,0.71 0.185,1.1262 0,0.4983 -0.0769,0.9519 -0.2309,1.3609 -0.1554,0.409 -0.3568,0.769 -0.607,1.0801 -0.2501,0.3111 -0.5121,0.5544 -0.786,0.7301 -0.2724,0.1757 -0.5965,0.3053 -0.9681,0.3903 -0.2842,0.0648 -0.6321,0.0965 -1.0466,0.0965l-2.2886 0zm1.0007 -0.6999l1.0066 0c0.4545,0 0.8571,-0.0418 1.2095,-0.1224 0.2206,-0.0504 0.4086,-0.1253 0.564,-0.2247 0.2057,-0.1253 0.3922,-0.2937 0.5595,-0.5011 0.2206,-0.2765 0.3952,-0.5905 0.527,-0.9433 0.1318,-0.3528 0.1969,-0.7546 0.1969,-1.2039 0,-0.5012 -0.0889,-0.8857 -0.2679,-1.155 -0.1792,-0.2679 -0.4086,-0.4464 -0.6854,-0.5329 -0.2058,-0.0648 -0.5255,-0.0979 -0.9593,-0.0979l-1.1221 0 -1.0288 4.7812z"/>
  <path id="1" class="fil3" d="M17.5189 83.1852l0.1864 -0.8655 0.7802 0 -0.185 0.8655 -0.7816 0zm-1.1443 5.3198l0.9622 -4.4802 0.7845 0 -0.9622 4.4802 -0.7845 0z"/>
  <path id="12" class="fil3" d="M18.4515 86.9742l0.7846 -0.0476c0,0.2204 0.0355,0.4076 0.1051,0.5617 0.068,0.1541 0.1968,0.2808 0.3834,0.3802 0.1864,0.0979 0.404,0.1469 0.6528,0.1469 0.3464,0 0.6069,-0.0677 0.7801,-0.2017 0.1732,-0.1353 0.2606,-0.2952 0.2606,-0.4781 0,-0.131 -0.0518,-0.2563 -0.157,-0.3744 -0.1066,-0.1181 -0.3671,-0.2635 -0.7816,-0.4364 -0.4159,-0.1742 -0.6809,-0.2952 -0.7963,-0.3658 -0.194,-0.1152 -0.3391,-0.2505 -0.4382,-0.4075 -0.0978,-0.1555 -0.1466,-0.3356 -0.1466,-0.5372 0,-0.3542 0.1436,-0.6581 0.4338,-0.9116 0.2886,-0.2534 0.6927,-0.3802 1.2138,-0.3802 0.5773,0 1.0185,0.1311 1.3205,0.3903 0.3019,0.2607 0.4588,0.6034 0.4706,1.0283l-0.7682 0.0504c-0.0118,-0.2708 -0.1096,-0.4839 -0.2946,-0.6409 -0.185,-0.1584 -0.4471,-0.2362 -0.7846,-0.2362 -0.2723,0 -0.4825,0.0605 -0.6335,0.1801 -0.151,0.1209 -0.225,0.252 -0.225,0.3931 0,0.1411 0.065,0.265 0.1954,0.3716 0.0858,0.0734 0.3094,0.1857 0.672,0.3369 0.601,0.2535 0.9799,0.4537 1.1355,0.5991 0.2486,0.2333 0.373,0.5185 0.373,0.8526 0,0.2218 -0.0696,0.4407 -0.2102,0.6538 -0.1406,0.2131 -0.3538,0.3845 -0.6425,0.5127 -0.2872,0.1281 -0.6262,0.1915 -1.017,0.1915 -0.5314,0 -0.9844,-0.1282 -1.3574,-0.3831 -0.3731,-0.2563 -0.5493,-0.6725 -0.5285,-1.2485z"/>
  <path id="123" class="fil3" d="M26.2008 86.9814l0.764 0.0763c-0.1096,0.3687 -0.3628,0.7186 -0.7565,1.0513 -0.3953,0.3312 -0.866,0.4968 -1.4122,0.4968 -0.3404,0 -0.6544,-0.0763 -0.9386,-0.229 -0.2842,-0.1541 -0.5018,-0.3773 -0.6513,-0.6696 -0.148,-0.2924 -0.222,-0.625 -0.222,-0.9995 0,-0.4896 0.1154,-0.9634 0.3478,-1.4242 0.2339,-0.4594 0.5345,-0.8007 0.9045,-1.0254 0.3701,-0.2232 0.7712,-0.3356 1.202,-0.3356 0.5493,0 0.9874,0.1671 1.3161,0.4983 0.3286,0.3327 0.4914,0.7849 0.4914,1.3581 0,0.2203 -0.0192,0.445 -0.0607,0.6754l-3.3914 0c-0.0104,0.0878 -0.0163,0.1656 -0.0163,0.2362 0,0.419 0.0992,0.7387 0.2961,0.9605 0.1984,0.2203 0.4412,0.3312 0.7268,0.3312 0.2694,0 0.5329,-0.0864 0.7935,-0.2577 0.2605,-0.1714 0.4633,-0.4191 0.6068,-0.7431zm-2.2811 -1.1089l2.5847 0c0.003,-0.0792 0.0044,-0.1354 0.0044,-0.1685 0,-0.3831 -0.0977,-0.6769 -0.2946,-0.8799 -0.1968,-0.2045 -0.45,-0.3068 -0.7594,-0.3068 -0.3345,0 -0.6409,0.1138 -0.9163,0.3384 -0.2768,0.2247 -0.4826,0.5631 -0.6188,1.0168z"/>
  <path id="1234" class="fil3" d="M27.7583 88.505l0.9637 -4.4802 0.7106 0 -0.1688 0.7805c0.3094,-0.3067 0.598,-0.5314 0.8674,-0.6711 0.268,-0.1411 0.5433,-0.2117 0.8231,-0.2117 0.373,0 0.6661,0.0994 0.8793,0.2953 0.2117,0.1973 0.3182,0.4608 0.3182,0.7892 0,0.167 -0.037,0.4277 -0.1125,0.7848l-0.5862 2.7132 -0.7845 0 0.6113 -2.8399c0.0608,-0.2751 0.0918,-0.4796 0.0918,-0.6106 0,-0.1498 -0.0532,-0.2708 -0.1584,-0.3629 -0.1066,-0.0936 -0.259,-0.1397 -0.4574,-0.1397 -0.4026,0 -0.7609,0.1411 -1.0732,0.4219 -0.3139,0.2809 -0.5447,0.7633 -0.6928,1.4474l-0.4456 2.0838 -0.786 0zm1.5011 -5.1556c0.0946,-0.3744 0.213,-0.625 0.3522,-0.7532 0.1406,-0.1282 0.3168,-0.1915 0.527,-0.1915 0.0962,0 0.1895,0.01 0.2798,0.0331 0.0918,0.023 0.2502,0.0821 0.4752,0.18 0.2249,0.0965 0.3805,0.1455 0.4633,0.1455 0.0666,0 0.1258,-0.0231 0.1792,-0.0706 0.0518,-0.0461 0.0947,-0.1339 0.1288,-0.2636l0.5254 0c-0.0296,0.2895 -0.1258,0.517 -0.2886,0.6798 -0.1628,0.1627 -0.3524,0.2448 -0.5655,0.2448 -0.1155,0 -0.2621,-0.0374 -0.4381,-0.1094 -0.3998,-0.17 -0.6455,-0.2535 -0.7373,-0.2535 -0.0932,0 -0.1687,0.0288 -0.2294,0.0864 -0.0607,0.0576 -0.1051,0.1483 -0.1303,0.2722l-0.5417 0z"/>
  <path id="12345" class="fil3" d="M32.8373 86.8042c0,-0.8741 0.2649,-1.5985 0.7934,-2.1717 0.4367,-0.4738 1.0095,-0.71 1.7171,-0.71 0.5551,0 1.0037,0.17 1.3427,0.507 0.339,0.337 0.5092,0.7935 0.5092,1.3666 0,0.5156 -0.1066,0.9937 -0.3212,1.4373 -0.2132,0.4421 -0.5182,0.782 -0.9118,1.0181 -0.3954,0.2362 -0.8113,0.3543 -1.248,0.3543 -0.3583,0 -0.6839,-0.0734 -0.977,-0.2232 -0.2931,-0.1483 -0.5181,-0.36 -0.672,-0.6322 -0.1555,-0.2736 -0.2324,-0.589 -0.2324,-0.9462zm0.7845 -0.0749c0,0.422 0.1051,0.7417 0.3124,0.9592 0.2086,0.2174 0.4736,0.3269 0.7934,0.3269 0.1688,0 0.3345,-0.0332 0.4989,-0.0994 0.1658,-0.0663 0.3182,-0.1656 0.4604,-0.301 0.1406,-0.1354 0.262,-0.2895 0.3612,-0.4623 0.1006,-0.1728 0.1806,-0.3586 0.2412,-0.5587 0.0904,-0.2794 0.1348,-0.5458 0.1348,-0.8022 0,-0.4047 -0.1052,-0.7186 -0.3154,-0.9433 -0.2087,-0.2232 -0.4722,-0.3341 -0.7905,-0.3341 -0.2457,0 -0.4707,0.0562 -0.672,0.17 -0.2028,0.1137 -0.3864,0.2808 -0.5492,0.4997 -0.1628,0.2203 -0.2828,0.4752 -0.3598,0.7661 -0.0769,0.2909 -0.1154,0.5502 -0.1154,0.7791z"/>
  <path id="123456" class="fil3" d="M37.712 86.9742l0.7846 -0.0476c0,0.2204 0.0355,0.4076 0.1051,0.5617 0.068,0.1541 0.1968,0.2808 0.3834,0.3802 0.1864,0.0979 0.404,0.1469 0.6528,0.1469 0.3464,0 0.6069,-0.0677 0.7801,-0.2017 0.1732,-0.1353 0.2606,-0.2952 0.2606,-0.4781 0,-0.131 -0.0518,-0.2563 -0.157,-0.3744 -0.1066,-0.1181 -0.3671,-0.2635 -0.7816,-0.4364 -0.4159,-0.1742 -0.6809,-0.2952 -0.7963,-0.3658 -0.194,-0.1152 -0.3391,-0.2505 -0.4382,-0.4075 -0.0978,-0.1555 -0.1466,-0.3356 -0.1466,-0.5372 0,-0.3542 0.1436,-0.6581 0.4338,-0.9116 0.2886,-0.2534 0.6927,-0.3802 1.2138,-0.3802 0.5773,0 1.0185,0.1311 1.3205,0.3903 0.3019,0.2607 0.4588,0.6034 0.4706,1.0283l-0.7682 0.0504c-0.0118,-0.2708 -0.1096,-0.4839 -0.2946,-0.6409 -0.185,-0.1584 -0.4471,-0.2362 -0.7846,-0.2362 -0.2723,0 -0.4825,0.0605 -0.6335,0.1801 -0.151,0.1209 -0.225,0.252 -0.225,0.3931 0,0.1411 0.065,0.265 0.1954,0.3716 0.0858,0.0734 0.3094,0.1857 0.672,0.3369 0.601,0.2535 0.9799,0.4537 1.1355,0.5991 0.2486,0.2333 0.373,0.5185 0.373,0.8526 0,0.2218 -0.0696,0.4407 -0.2102,0.6538 -0.1406,0.2131 -0.3538,0.3845 -0.6425,0.5127 -0.2872,0.1281 -0.6262,0.1915 -1.017,0.1915 -0.5314,0 -0.9844,-0.1282 -1.3574,-0.3831 -0.3731,-0.2563 -0.5493,-0.6725 -0.5285,-1.2485z"/>
  <polygon id="1234567" class="fil3" points="44.7599,88.505 46.0906,82.3197 46.9359,82.3197 45.6096,88.505 "/>
  <path id="12345678" class="fil3" d="M47.0144 88.505l0.9637 -4.4802 0.7106 0 -0.1688 0.7805c0.3094,-0.3067 0.598,-0.5314 0.8674,-0.6711 0.268,-0.1411 0.5433,-0.2117 0.8231,-0.2117 0.373,0 0.6661,0.0994 0.8793,0.2953 0.2117,0.1973 0.3182,0.4608 0.3182,0.7892 0,0.167 -0.037,0.4277 -0.1125,0.7848l-0.5862 2.7132 -0.7845 0 0.6113 -2.8399c0.0608,-0.2751 0.0918,-0.4796 0.0918,-0.6106 0,-0.1498 -0.0532,-0.2708 -0.1584,-0.3629 -0.1066,-0.0936 -0.259,-0.1397 -0.4574,-0.1397 -0.4026,0 -0.7609,0.1411 -1.0732,0.4219 -0.3139,0.2809 -0.5447,0.7633 -0.6928,1.4474l-0.4456 2.0838 -0.786 0z"/>
  <path id="123456789" class="fil3" d="M53.7883 87.8843l-0.1288 0.625c-0.188,0.0475 -0.37,0.072 -0.5477,0.072 -0.3109,0 -0.5596,-0.0749 -0.7446,-0.2246 -0.1392,-0.1124 -0.2088,-0.265 -0.2088,-0.4594 0,-0.098 0.037,-0.3241 0.1126,-0.6798l0.5595 -2.6023 -0.6202 0 0.1258 -0.5904 0.6202 0 0.2384 -1.1017 0.8986 -0.5271 -0.3524 1.6288 0.7727 0 -0.1302 0.5904 -0.7683 0 -0.5329 2.477c-0.0667,0.314 -0.0992,0.5026 -0.0992,0.5646 0,0.0907 0.0267,0.1584 0.0799,0.2073 0.0534,0.0476 0.1406,0.0706 0.262,0.0706 0.1732,0 0.3286,-0.0158 0.4634,-0.0504z"/>
  <path id="12345678910" class="fil3" d="M57.8043 86.9814l0.764 0.0763c-0.1096,0.3687 -0.3628,0.7186 -0.7565,1.0513 -0.3953,0.3312 -0.866,0.4968 -1.4122,0.4968 -0.3404,0 -0.6544,-0.0763 -0.9386,-0.229 -0.2842,-0.1541 -0.5018,-0.3773 -0.6513,-0.6696 -0.148,-0.2924 -0.222,-0.625 -0.222,-0.9995 0,-0.4896 0.1154,-0.9634 0.3478,-1.4242 0.2339,-0.4594 0.5345,-0.8007 0.9045,-1.0254 0.3701,-0.2232 0.7712,-0.3356 1.202,-0.3356 0.5493,0 0.9874,0.1671 1.3161,0.4983 0.3286,0.3327 0.4914,0.7849 0.4914,1.3581 0,0.2203 -0.0192,0.445 -0.0607,0.6754l-3.3914 0c-0.0104,0.0878 -0.0163,0.1656 -0.0163,0.2362 0,0.419 0.0992,0.7387 0.2961,0.9605 0.1984,0.2203 0.4412,0.3312 0.7268,0.3312 0.2694,0 0.5329,-0.0864 0.7935,-0.2577 0.2605,-0.1714 0.4633,-0.4191 0.6068,-0.7431zm-2.2811 -1.1089l2.5847 0c0.003,-0.0792 0.0044,-0.1354 0.0044,-0.1685 0,-0.3831 -0.0977,-0.6769 -0.2946,-0.8799 -0.1968,-0.2045 -0.45,-0.3068 -0.7594,-0.3068 -0.3345,0 -0.6409,0.1138 -0.9163,0.3384 -0.2768,0.2247 -0.4826,0.5631 -0.6188,1.0168z"/>
  <polygon id="1234567891011" class="fil3" points="59.3009,88.505 60.6288,82.3197 61.4134,82.3197 60.0856,88.505 "/>
  <path id="123456789101112" class="fil3" d="M62.4497 83.1852l0.1864 -0.8655 0.7802 0 -0.185 0.8655 -0.7816 0zm-1.1443 5.3198l0.9622 -4.4802 0.7845 0 -0.9622 4.4802 -0.7845 0z"/>
  <path id="12345678910111213" class="fil3" d="M63.2653 88.9097l0.7935 0.072c-0.0059,0.1742 0.0163,0.3053 0.0651,0.3931 0.0489,0.0864 0.1273,0.1541 0.2339,0.2016 0.1422,0.062 0.3257,0.0937 0.5506,0.0937 0.4753,0 0.8158,-0.1196 1.0245,-0.3586 0.1347,-0.1613 0.2605,-0.5098 0.3774,-1.047l0.077 -0.3629c-0.407,0.4018 -0.8408,0.6034 -1.3011,0.6034 -0.4648,0 -0.8542,-0.1671 -1.168,-0.4997 -0.3139,-0.3341 -0.4707,-0.805 -0.4707,-1.4157 0,-0.504 0.1228,-0.9663 0.37,-1.3882 0.2472,-0.422 0.5418,-0.7402 0.8837,-0.9563 0.3406,-0.2145 0.6914,-0.3226 1.054,-0.3226 0.604,0 1.0689,0.2794 1.3959,0.8353l0.1555 -0.733 0.7209 0 -0.9282 4.3247c-0.102,0.4752 -0.2338,0.8453 -0.3996,1.1117 -0.1644,0.265 -0.3938,0.471 -0.6869,0.6178 -0.2931,0.1455 -0.6321,0.2189 -1.017,0.2189 -0.37,0 -0.6883,-0.046 -0.9562,-0.1396 -0.268,-0.0922 -0.4678,-0.2276 -0.5981,-0.4062 -0.1318,-0.1785 -0.1984,-0.383 -0.1984,-0.6149 0,-0.0691 0.0074,-0.1454 0.0222,-0.2275zm0.98 -2.3877c0,0.3067 0.0311,0.5371 0.0918,0.6927 0.0859,0.216 0.2102,0.3816 0.3701,0.4954 0.1598,0.1137 0.339,0.1699 0.5358,0.1699 0.2576,0 0.5137,-0.0879 0.7669,-0.2636 0.2546,-0.1756 0.4604,-0.4478 0.6188,-0.8165 0.1568,-0.3672 0.2368,-0.7201 0.2368,-1.0542 0,-0.3686 -0.1052,-0.661 -0.3154,-0.8799 -0.2086,-0.2174 -0.4692,-0.3269 -0.7786,-0.3269 -0.1909,0 -0.376,0.0504 -0.5551,0.1498 -0.1792,0.0994 -0.3464,0.252 -0.5004,0.4551 -0.1554,0.2045 -0.2723,0.4493 -0.3508,0.733 -0.0799,0.2837 -0.1199,0.4983 -0.1199,0.6452z"/>
  <path id="1234567891011121314" class="fil3" d="M71.6305 86.9814l0.764 0.0763c-0.1096,0.3687 -0.3628,0.7186 -0.7565,1.0513 -0.3953,0.3312 -0.866,0.4968 -1.4122,0.4968 -0.3404,0 -0.6544,-0.0763 -0.9386,-0.229 -0.2842,-0.1541 -0.5018,-0.3773 -0.6513,-0.6696 -0.148,-0.2924 -0.222,-0.625 -0.222,-0.9995 0,-0.4896 0.1154,-0.9634 0.3478,-1.4242 0.2339,-0.4594 0.5345,-0.8007 0.9045,-1.0254 0.3701,-0.2232 0.7712,-0.3356 1.202,-0.3356 0.5493,0 0.9874,0.1671 1.3161,0.4983 0.3286,0.3327 0.4914,0.7849 0.4914,1.3581 0,0.2203 -0.0192,0.445 -0.0607,0.6754l-3.3914 0c-0.0104,0.0878 -0.0163,0.1656 -0.0163,0.2362 0,0.419 0.0992,0.7387 0.2961,0.9605 0.1984,0.2203 0.4412,0.3312 0.7268,0.3312 0.2694,0 0.5329,-0.0864 0.7935,-0.2577 0.2605,-0.1714 0.4633,-0.4191 0.6068,-0.7431zm-2.2811 -1.1089l2.5847 0c0.003,-0.0792 0.0044,-0.1354 0.0044,-0.1685 0,-0.3831 -0.0977,-0.6769 -0.2946,-0.8799 -0.1968,-0.2045 -0.45,-0.3068 -0.7594,-0.3068 -0.3345,0 -0.6409,0.1138 -0.9163,0.3384 -0.2768,0.2247 -0.4826,0.5631 -0.6188,1.0168z"/>
  <path id="123456789101112131415" class="fil3" d="M73.188 88.505l0.9637 -4.4802 0.7106 0 -0.1688 0.7805c0.3094,-0.3067 0.598,-0.5314 0.8674,-0.6711 0.268,-0.1411 0.5433,-0.2117 0.8231,-0.2117 0.373,0 0.6661,0.0994 0.8793,0.2953 0.2117,0.1973 0.3182,0.4608 0.3182,0.7892 0,0.167 -0.037,0.4277 -0.1125,0.7848l-0.5862 2.7132 -0.7845 0 0.6113 -2.8399c0.0608,-0.2751 0.0918,-0.4796 0.0918,-0.6106 0,-0.1498 -0.0532,-0.2708 -0.1584,-0.3629 -0.1066,-0.0936 -0.259,-0.1397 -0.4574,-0.1397 -0.4026,0 -0.7609,0.1411 -1.0732,0.4219 -0.3139,0.2809 -0.5447,0.7633 -0.6928,1.4474l-0.4456 2.0838 -0.786 0z"/>
  <path id="12345678910111213141516" class="fil3" d="M79.9619 87.8843l-0.1288 0.625c-0.188,0.0475 -0.37,0.072 -0.5477,0.072 -0.3109,0 -0.5596,-0.0749 -0.7446,-0.2246 -0.1392,-0.1124 -0.2088,-0.265 -0.2088,-0.4594 0,-0.098 0.037,-0.3241 0.1126,-0.6798l0.5595 -2.6023 -0.6202 0 0.1258 -0.5904 0.6202 0 0.2384 -1.1017 0.8986 -0.5271 -0.3524 1.6288 0.7727 0 -0.1302 0.5904 -0.7683 0 -0.5329 2.477c-0.0667,0.314 -0.0992,0.5026 -0.0992,0.5646 0,0.0907 0.0267,0.1584 0.0799,0.2073 0.0534,0.0476 0.1406,0.0706 0.262,0.0706 0.1732,0 0.3286,-0.0158 0.4634,-0.0504z"/>
  <path id="1234567891011121314151617" class="fil3" d="M83.9779 86.9814l0.764 0.0763c-0.1096,0.3687 -0.3628,0.7186 -0.7565,1.0513 -0.3953,0.3312 -0.866,0.4968 -1.4122,0.4968 -0.3404,0 -0.6544,-0.0763 -0.9386,-0.229 -0.2842,-0.1541 -0.5018,-0.3773 -0.6513,-0.6696 -0.148,-0.2924 -0.222,-0.625 -0.222,-0.9995 0,-0.4896 0.1154,-0.9634 0.3478,-1.4242 0.2339,-0.4594 0.5345,-0.8007 0.9045,-1.0254 0.3701,-0.2232 0.7712,-0.3356 1.202,-0.3356 0.5493,0 0.9874,0.1671 1.3161,0.4983 0.3286,0.3327 0.4914,0.7849 0.4914,1.3581 0,0.2203 -0.0192,0.445 -0.0607,0.6754l-3.3914 0c-0.0104,0.0878 -0.0163,0.1656 -0.0163,0.2362 0,0.419 0.0992,0.7387 0.2961,0.9605 0.1984,0.2203 0.4412,0.3312 0.7268,0.3312 0.2694,0 0.5329,-0.0864 0.7935,-0.2577 0.2605,-0.1714 0.4633,-0.4191 0.6068,-0.7431zm-2.2811 -1.1089l2.5847 0c0.003,-0.0792 0.0044,-0.1354 0.0044,-0.1685 0,-0.3831 -0.0977,-0.6769 -0.2946,-0.8799 -0.1968,-0.2045 -0.45,-0.3068 -0.7594,-0.3068 -0.3345,0 -0.6409,0.1138 -0.9163,0.3384 -0.2768,0.2247 -0.4826,0.5631 -0.6188,1.0168z"/>
  <path id="123456789101112131415161718" class="fil3" d="M85.6094 86.9742l0.7846 -0.0476c0,0.2204 0.0355,0.4076 0.1051,0.5617 0.068,0.1541 0.1968,0.2808 0.3834,0.3802 0.1864,0.0979 0.404,0.1469 0.6528,0.1469 0.3464,0 0.6069,-0.0677 0.7801,-0.2017 0.1732,-0.1353 0.2606,-0.2952 0.2606,-0.4781 0,-0.131 -0.0518,-0.2563 -0.157,-0.3744 -0.1066,-0.1181 -0.3671,-0.2635 -0.7816,-0.4364 -0.4159,-0.1742 -0.6809,-0.2952 -0.7963,-0.3658 -0.194,-0.1152 -0.3391,-0.2505 -0.4382,-0.4075 -0.0978,-0.1555 -0.1466,-0.3356 -0.1466,-0.5372 0,-0.3542 0.1436,-0.6581 0.4338,-0.9116 0.2886,-0.2534 0.6927,-0.3802 1.2138,-0.3802 0.5773,0 1.0185,0.1311 1.3205,0.3903 0.3019,0.2607 0.4588,0.6034 0.4706,1.0283l-0.7682 0.0504c-0.0118,-0.2708 -0.1096,-0.4839 -0.2946,-0.6409 -0.185,-0.1584 -0.4471,-0.2362 -0.7846,-0.2362 -0.2723,0 -0.4825,0.0605 -0.6335,0.1801 -0.151,0.1209 -0.225,0.252 -0.225,0.3931 0,0.1411 0.065,0.265 0.1954,0.3716 0.0858,0.0734 0.3094,0.1857 0.672,0.3369 0.601,0.2535 0.9799,0.4537 1.1355,0.5991 0.2486,0.2333 0.373,0.5185 0.373,0.8526 0,0.2218 -0.0696,0.4407 -0.2102,0.6538 -0.1406,0.2131 -0.3538,0.3845 -0.6425,0.5127 -0.2872,0.1281 -0.6262,0.1915 -1.017,0.1915 -0.5314,0 -0.9844,-0.1282 -1.3574,-0.3831 -0.3731,-0.2563 -0.5493,-0.6725 -0.5285,-1.2485z"/>
  <path class="fil4" d="M71.4296 9.4741c-1.8847,21.4496 -38.0663,25.1175 -44.3818,44.6115 0.1284,-22.4767 38.0275,-25.508 39.8068,-44.6229l4.575 0.0114z"/>
  <path class="fil5" d="M26.9718 60.577c1.8847,-21.4496 38.0664,-25.1175 44.3819,-44.6114 -0.1284,22.4766 -38.0276,25.5079 -39.8068,44.6228l-4.5751 -0.0114z"/>
  <path class="fil6" d="M26.9719 28.1271c2.3164,-3.5705 4.4034,-7.2411 15.9154,-7.7463l7.4122 -0.6692c8.3123,-0.6476 12.9498,-2.6858 14.3534,-10.2312l-37.6179 -0.0462 -0.0631 18.6929z"/>
  <path class="fil7" d="M71.4296 41.924c-2.3164,3.5705 -4.4034,7.2411 -15.9154,7.7463l-7.4122 0.6692c-8.3123,0.6476 -12.9498,2.6858 -14.3534,10.2312l37.6178 0.0462 0.0415 -12.2496 0.0217 -6.4433z"/>
  <path class="fil2" d="M77.4634 68.1562l0.7149 -1.262c0.347,-0.5981 0.5218,-0.958 0.5218,-1.0771 0,-0.1039 -0.0905,-0.185 -0.2654,-0.2458 -0.1538,-0.0533 -0.2293,-0.1876 -0.2293,-0.4005 0,-0.2357 0.0122,-0.3877 0.0393,-0.4511 0.0271,-0.0659 0.1025,-0.0988 0.2262,-0.0988l2.0483 0c0.1478,0 0.2233,0.0684 0.2233,0.2027l0 0.5272c0,0.0988 -0.0846,0.1926 -0.2474,0.2813 -0.1659,0.0887 -0.2685,0.1698 -0.3108,0.2458l-2.1207 3.7558 2.2534 5.4057c0.0694,0.1571 0.1207,0.2585 0.1539,0.3041 0.0333,0.0456 0.1086,0.0938 0.2262,0.1495 0.1419,0.0634 0.2324,0.1242 0.2746,0.18 0.0392,0.0583 0.0604,0.1622 0.0604,0.3168 0,0.223 -0.0212,0.3801 -0.0665,0.4739 -0.0422,0.0937 -0.1357,0.1419 -0.2775,0.1419l-3.7376 0c-0.19,0 -0.2836,-0.0684 -0.2836,-0.2078l0 -0.4765c0,-0.147 0.0816,-0.261 0.2474,-0.3396 0.1871,-0.0937 0.2836,-0.1976 0.2836,-0.3117 0,-0.1444 -0.0393,-0.3041 -0.1146,-0.484l-0.8236 -1.8855 -1.0678 1.8855c-0.1479,0.2534 -0.2233,0.4359 -0.2233,0.5499 0,0.0938 0.1116,0.1977 0.3289,0.3117 0.0452,0.0254 0.0873,0.0533 0.1176,0.0862 0.0332,0.0304 0.0513,0.1749 0.0513,0.4258 0,0.2179 -0.0152,0.3472 -0.0423,0.3877 -0.0242,0.038 -0.0935,0.0583 -0.2082,0.0583l-2.1297 0c-0.1809,0 -0.2715,-0.0684 -0.2715,-0.2078l0 -0.55c0,-0.0836 0.0965,-0.1698 0.2896,-0.2585 0.1599,-0.0709 0.2806,-0.152 0.359,-0.2458 0.0784,-0.0938 0.196,-0.2788 0.35,-0.5575l1.8461 -3.3478 -2.2353 -5.3981c-0.0784,-0.1926 -0.2262,-0.3649 -0.4525,-0.5195 -0.1056,-0.0685 -0.1569,-0.1419 -0.1569,-0.2154l0 -0.4537c0,-0.152 0.1146,-0.2306 0.3439,-0.2306l3.7014 0c0.1478,0 0.2233,0.0735 0.2233,0.2154l0 0.5145c0,0.1318 -0.0875,0.2255 -0.2565,0.2813 -0.1839,0.0583 -0.2745,0.1368 -0.2745,0.2306 0,0.1242 0.0452,0.2914 0.1418,0.5043l0.7693 1.7892z"/>
  <path class="fil2" d="M69.4113 65.5358l0 4.2399 0.6004 0c0.1659,0 0.2865,-0.0304 0.362,-0.0887 0.0753,-0.0609 0.1357,-0.1901 0.1779,-0.3878 0.0694,-0.3497 0.1268,-0.5626 0.172,-0.631 0.0422,-0.0685 0.1115,-0.1039 0.2081,-0.1039 0.4646,0 0.727,0.0152 0.7904,0.0481 0.0603,0.033 0.0935,0.1571 0.0935,0.3751l0 2.4735c0,0.152 -0.0302,0.2534 -0.0905,0.299 -0.0573,0.0482 -0.2413,0.071 -0.5461,0.071 -0.202,0 -0.3348,-0.0304 -0.4041,-0.0913 -0.0664,-0.0633 -0.1328,-0.2382 -0.1991,-0.5246 -0.0633,-0.261 -0.1268,-0.4232 -0.1901,-0.4815 -0.0604,-0.0608 -0.1569,-0.0912 -0.2865,-0.0912l-0.6879 0 0 5.1167 0.4677 0c0.2896,0 0.4886,-0.0684 0.5973,-0.2052 0.1085,-0.1344 0.2835,-0.5272 0.5248,-1.1759 0.0996,-0.2712 0.2021,-0.4512 0.3108,-0.5348 0.1056,-0.0836 0.2896,-0.1267 0.555,-0.1267 0.365,0 0.549,0.0988 0.549,0.299 0,0.0583 -0.012,0.1445 -0.0362,0.2585l-0.3258 1.6854c-0.0603,0.3066 -0.1085,0.4916 -0.1478,0.5524 -0.0362,0.0634 -0.1569,0.0938 -0.3559,0.0938l-5.8946 0c-0.1477,0 -0.2443,-0.0279 -0.2835,-0.0862 -0.0423,-0.0557 -0.0634,-0.2205 -0.0634,-0.4942 0,-0.1723 0.1056,-0.299 0.3198,-0.3776 0.3228,-0.114 0.4857,-0.2686 0.4857,-0.4688l0 -9.2578c-0.0061,-0.0938 -0.1388,-0.1875 -0.3983,-0.2813 -0.1779,-0.0659 -0.2805,-0.1267 -0.3136,-0.185 -0.0332,-0.0608 -0.0483,-0.2028 -0.0483,-0.4309 0,-0.1926 0.0181,-0.3091 0.0542,-0.3471 0.0333,-0.0355 0.1359,-0.0558 0.3077,-0.0558l5.6381 0c0.1419,0 0.2444,0.0203 0.3108,0.0608 0.0633,0.0406 0.1146,0.1343 0.1508,0.2813l0.4495 1.916c0.0241,0.0988 0.0362,0.1672 0.0362,0.2002 0,0.1343 -0.1418,0.2002 -0.4253,0.2002 -0.3168,0 -0.531,-0.0304 -0.6366,-0.0913 -0.1056,-0.0633 -0.2081,-0.2179 -0.3077,-0.4637 -0.184,-0.4461 -0.3408,-0.7553 -0.4735,-0.9301 -0.1329,-0.1724 -0.2806,-0.2585 -0.4465,-0.2585l-0.6004 0z"/>
  <path class="fil2" d="M59.2357 65.4547l-0.3981 0c-0.1298,0 -0.2354,0.0709 -0.3168,0.2179 -0.0844,0.147 -0.1689,0.5398 -0.2564,1.1835 -0.0422,0.2839 -0.1056,0.4588 -0.196,0.5323 -0.0875,0.0709 -0.2625,0.1064 -0.5279,0.1064 -0.2535,0 -0.4194,-0.0254 -0.4918,-0.076 -0.0723,-0.0533 -0.1116,-0.1572 -0.1116,-0.3092 0,-0.0887 0.003,-0.1774 0.009,-0.2687l0.1056 -1.7284c0.012,-0.2027 0.0543,-0.3345 0.1267,-0.3978 0.0694,-0.0609 0.2474,-0.0938 0.528,-0.0938l6.4796 0c0.1871,0 0.3018,0.0203 0.3439,0.0608 0.0423,0.0406 0.0725,0.1825 0.0965,0.4308l0.1509 1.5282c0.0121,0.1191 0.0182,0.2408 0.0182,0.365 0,0.147 -0.0212,0.261 -0.0665,0.3421 -0.0452,0.0786 -0.184,0.1191 -0.4193,0.1191 -0.3016,0 -0.4947,-0.0253 -0.5792,-0.076 -0.0844,-0.0482 -0.1538,-0.2053 -0.2081,-0.4663 -0.0935,-0.4309 -0.196,-0.7831 -0.3108,-1.0594 -0.1115,-0.2737 -0.2503,-0.4105 -0.4133,-0.4105l-0.2654 0 0 9.5315c0,0.2737 0.1418,0.4612 0.4254,0.5651 0.1176,0.0456 0.1931,0.0989 0.2323,0.1597 0.0392,0.0608 0.0573,0.1926 0.0573,0.3903 0,0.2509 -0.0271,0.3979 -0.0784,0.4409 -0.0543,0.0431 -0.175,0.0634 -0.362,0.0634l-3.8885 0c-0.1538,0 -0.2533,-0.0253 -0.2956,-0.0735 -0.0452,-0.0507 -0.0664,-0.1901 -0.0664,-0.4232 0,-0.2788 0.0906,-0.4461 0.2715,-0.5069 0.178,-0.0583 0.2896,-0.1166 0.3379,-0.1723 0.0453,-0.0583 0.0693,-0.1546 0.0693,-0.294l0 -9.681z"/>
  <path class="fil2" d="M51.5913 69.0584l0 -0.2627c0,-0.101 0.0965,-0.1532 0.2925,-0.1532l4.2322 0c0.1598,0 0.2625,0.0118 0.3076,0.0354 0.0484,0.0235 0.0724,0.0926 0.0724,0.2071 0,0.1751 -0.015,0.2829 -0.0482,0.325 -0.0331,0.0437 -0.1055,0.069 -0.2171,0.0791 -0.3651,0.037 -0.5491,0.1667 -0.5491,0.3907l0 5.9289c0,0.1246 0.1328,0.2239 0.3983,0.2963 0.1719,0.0455 0.2744,0.0876 0.3106,0.1229 0.0331,0.0371 0.0512,0.0994 0.0512,0.1886l0 0.192c0,0.1044 -0.0181,0.1633 -0.0512,0.1768 -0.0362,0.0135 -0.1267,0.0202 -0.2745,0.0202l-4.3135 0c-0.1631,0 -0.2474,-0.0354 -0.2474,-0.1078 0,-0.2374 0.015,-0.3822 0.0451,-0.4344 0.0303,-0.0539 0.1328,-0.0943 0.3078,-0.1246 0.3197,-0.0488 0.4795,-0.1415 0.4795,-0.2812l0 -5.8548c0,-0.1381 -0.0301,-0.2425 -0.0904,-0.3132 -0.0574,-0.0707 -0.1871,-0.1297 -0.3891,-0.1751 -0.1448,-0.0371 -0.2354,-0.0691 -0.2686,-0.096 -0.0331,-0.0286 -0.0481,-0.0825 -0.0481,-0.16z"/>
  <path class="fil2" d="M44.0342 64.6209l3.8281 0c0.1297,0 0.2112,0.0253 0.2474,0.071 0.0332,0.0481 0.0513,0.1926 0.0513,0.4359 0,0.2407 -0.0845,0.4029 -0.2565,0.4815 -0.1296,0.0608 -0.2171,0.1216 -0.2594,0.185 -0.0452,0.0659 -0.0664,0.19 -0.0664,0.3725l0 8.3151c0,0.228 0.0755,0.413 0.2292,0.5524 0.1539,0.142 0.347,0.2129 0.5823,0.2129 0.2203,0 0.4043,-0.0785 0.5581,-0.2382 0.1539,-0.1571 0.2292,-0.3345 0.2292,-0.5271l0 -8.3151c0,-0.1444 -0.0151,-0.2433 -0.0482,-0.3016 -0.0332,-0.0557 -0.1146,-0.1267 -0.2444,-0.2103 -0.1991,-0.1293 -0.2986,-0.3269 -0.2986,-0.5956 0,-0.2078 0.0271,-0.332 0.0845,-0.375 0.0543,-0.0406 0.1357,-0.0634 0.2413,-0.0634l1.9095 0c0.2112,0 0.3167,0.0912 0.3167,0.2686l0 0.3574c0,0.1571 -0.009,0.2585 -0.0332,0.299 -0.024,0.0431 -0.0934,0.0811 -0.2051,0.1166 -0.2745,0.0786 -0.4132,0.2382 -0.4132,0.4815l0 8.0996c0,0.7679 -0.2625,1.3762 -0.7874,1.8247 -0.5249,0.4461 -1.2549,0.6716 -2.1931,0.6716 -1.0468,0 -1.8462,-0.2382 -2.3982,-0.7147 -0.552,-0.4739 -0.8266,-1.1607 -0.8266,-2.0553l0 -7.8259c0,-0.2078 -0.1296,-0.3624 -0.3891,-0.4612 -0.1298,-0.0482 -0.2081,-0.0938 -0.2322,-0.1369 -0.0272,-0.0405 -0.0423,-0.1318 -0.0423,-0.2712 0,-0.2863 0.0211,-0.4663 0.0633,-0.5423 0.0393,-0.0735 0.1599,-0.1115 0.353,-0.1115z"/>
  <path class="fil2" d="M40.0984 76.344c-0.5219,0.2027 -1.0558,0.3042 -1.599,0.3042 -1.3365,0 -2.4042,-0.5754 -3.204,-1.7234 -0.7962,-1.1481 -1.1975,-2.6055 -1.1975,-4.3746 0,-1.8298 0.3982,-3.3252 1.1947,-4.4833 0.7936,-1.1584 1.8854,-1.7387 3.2703,-1.7387 1.2882,0 2.344,0.5577 3.1646,1.6727 0.8175,1.1127 1.2279,2.6637 1.2279,4.6532 0,1.7287 -0.4194,3.1807 -1.2551,4.3593 3.9815,4.278 8.6618,2.0838 8.6618,2.0838 0,0 -3.0713,1.9571 -7.892,0.3117 0,0 -1.4995,-0.3331 -2.3717,-1.0649zm-0.8809 -2.6357l0 -7.7378c0,-0.2231 -0.0694,-0.4107 -0.2051,-0.5652 -0.1358,-0.152 -0.3017,-0.2306 -0.504,-0.2306 -0.2233,0 -0.395,0.081 -0.5158,0.2382 -0.1206,0.1598 -0.1811,0.3447 -0.1811,0.5576l0 9.0505c0,0.218 0.0664,0.4055 0.2023,0.5651 0.1358,0.1572 0.2956,0.2385 0.4766,0.2385 0.1901,0 0.3532,-0.0735 0.4917,-0.2207 0.1388,-0.147 0.208,-0.2837 0.208,-0.4105 0,-0.2282 -0.2412,-0.4968 -0.7268,-0.8034 -0.1327,-0.0836 -0.2021,-0.2078 -0.2021,-0.37l-0.0092 -0.2003c0,-0.2053 0.0876,-0.3067 0.2658,-0.3067 0.0812,0 0.3164,0.0659 0.6997,0.1953z"/>
  <path class="fil2" d="M30.3799 65.5358l0 4.2399 0.6004 0c0.1659,0 0.2865,-0.0304 0.362,-0.0887 0.0753,-0.0609 0.1357,-0.1901 0.1779,-0.3878 0.0694,-0.3497 0.1268,-0.5626 0.172,-0.631 0.0422,-0.0685 0.1116,-0.1039 0.2081,-0.1039 0.4646,0 0.7271,0.0152 0.7904,0.0481 0.0603,0.033 0.0935,0.1571 0.0935,0.3751l0 2.4735c0,0.152 -0.0302,0.2534 -0.0904,0.299 -0.0574,0.0482 -0.2414,0.071 -0.5461,0.071 -0.202,0 -0.3349,-0.0304 -0.4042,-0.0913 -0.0664,-0.0633 -0.1328,-0.2382 -0.1991,-0.5246 -0.0633,-0.261 -0.1268,-0.4232 -0.1901,-0.4815 -0.0603,-0.0608 -0.1569,-0.0912 -0.2865,-0.0912l-0.6879 0 0 5.1167 0.4677 0c0.2896,0 0.4886,-0.0684 0.5973,-0.2052 0.1085,-0.1344 0.2835,-0.5272 0.5248,-1.1759 0.0996,-0.2712 0.2021,-0.4512 0.3108,-0.5348 0.1056,-0.0836 0.2896,-0.1267 0.555,-0.1267 0.365,0 0.549,0.0988 0.549,0.299 0,0.0583 -0.012,0.1445 -0.0362,0.2585l-0.3258 1.6854c-0.0603,0.3066 -0.1085,0.4916 -0.1478,0.5524 -0.0362,0.0634 -0.1569,0.0938 -0.3559,0.0938l-5.8946 0c-0.1477,0 -0.2442,-0.0279 -0.2835,-0.0862 -0.0423,-0.0557 -0.0633,-0.2205 -0.0633,-0.4942 0,-0.1723 0.1055,-0.299 0.3197,-0.3776 0.3228,-0.114 0.4857,-0.2686 0.4857,-0.4688l0 -9.2578c-0.006,-0.0938 -0.1387,-0.1875 -0.3982,-0.2813 -0.178,-0.0659 -0.2806,-0.1267 -0.3137,-0.185 -0.0332,-0.0608 -0.0483,-0.2028 -0.0483,-0.4309 0,-0.1926 0.0181,-0.3091 0.0543,-0.3471 0.0332,-0.0355 0.1358,-0.0558 0.3077,-0.0558l5.638 0c0.1419,0 0.2444,0.0203 0.3108,0.0608 0.0633,0.0406 0.1147,0.1343 0.1508,0.2813l0.4495 1.916c0.0242,0.0988 0.0362,0.1672 0.0362,0.2002 0,0.1343 -0.1418,0.2002 -0.4253,0.2002 -0.3168,0 -0.531,-0.0304 -0.6366,-0.0913 -0.1056,-0.0633 -0.2081,-0.2179 -0.3077,-0.4637 -0.184,-0.4461 -0.3408,-0.7553 -0.4735,-0.9301 -0.1328,-0.1724 -0.2806,-0.2585 -0.4465,-0.2585l-0.6004 0z"/>
  <path class="fil2" d="M20.0625 64.6209l5.5597 0c0.1237,0 0.187,0.0329 0.187,0.0988 0,0.0228 -0.0029,0.0507 -0.009,0.0811 -0.0061,0.0152 -0.0212,0.0583 -0.0452,0.1343l-2.8719 10.8012 0.54 0c0.2987,0 0.5189,-0.0887 0.6607,-0.2711 0.1417,-0.18 0.2715,-0.5069 0.3891,-0.9833 0.0603,-0.256 0.1327,-0.4207 0.2202,-0.4892 0.0904,-0.0709 0.2503,-0.1039 0.4887,-0.1039 0.3046,0 0.4857,0.0102 0.5429,0.033 0.0543,0.0228 0.0845,0.0709 0.0845,0.1444 0,0.0203 -0.0181,0.1166 -0.0542,0.2889l-0.4074 2.2505 -5.7436 0c-0.1176,0 -0.178,-0.0253 -0.178,-0.0735 0,-0.076 0.0242,-0.1875 0.0724,-0.3345l3.0227 -10.7429 -0.6093 0c-0.3771,0 -0.6758,0.3903 -0.893,1.1708 -0.0844,0.2991 -0.178,0.479 -0.2835,0.5474 -0.1056,0.0659 -0.2987,0.0989 -0.5732,0.0989 -0.2263,0 -0.368,-0.0076 -0.4313,-0.0254 -0.0604,-0.0177 -0.0906,-0.0659 -0.0906,-0.1444 0,-0.0406 0.0121,-0.1267 0.0332,-0.2611l0.3891 -2.22z"/>
 </g>
</svg>
